<svg xmlns="http://www.w3.org/2000/svg" xmlns:xlink="http://www.w3.org/1999/xlink" width="1080" zoomAndPan="magnify" viewBox="0 0 810 809.999993" height="1080" preserveAspectRatio="xMidYMid meet" version="1.0"><defs><g/><clipPath id="3f190b300a"><rect x="0" width="231" y="0" height="54"/></clipPath><clipPath id="d77ed2d05b"><rect x="0" width="249" y="0" height="112"/></clipPath></defs><g transform="matrix(1, 0, 0, 1, 89, 379)"><g clip-path="url(#3f190b300a)"><g fill="#000000" fill-opacity="1"><g transform="translate(0.356347, 40.517645)"><g><path d="M 2.734375 0 L 2.734375 -28.1875 L 21.140625 -28.1875 L 21.140625 -24.03125 L 7.890625 -24.03125 L 7.890625 -16.3125 L 19.9375 -16.3125 L 19.9375 -12.28125 L 7.890625 -12.28125 L 7.890625 -4.140625 L 21.140625 -4.140625 L 21.140625 0 Z M 2.734375 0 "/></g></g></g><g fill="#000000" fill-opacity="1"><g transform="translate(20.285944, 40.517645)"><g><path d="M 2.625 0 L 2.625 -19.96875 L 7.171875 -19.96875 L 7.5625 -16.59375 C 8.1875 -17.769531 9.082031 -18.707031 10.25 -19.40625 C 11.414062 -20.101562 12.789062 -20.453125 14.375 -20.453125 C 16.84375 -20.453125 18.757812 -19.671875 20.125 -18.109375 C 21.5 -16.554688 22.1875 -14.28125 22.1875 -11.28125 L 22.1875 0 L 17.03125 0 L 17.03125 -10.796875 C 17.03125 -12.515625 16.679688 -13.828125 15.984375 -14.734375 C 15.285156 -15.648438 14.195312 -16.109375 12.71875 -16.109375 C 11.269531 -16.109375 10.082031 -15.597656 9.15625 -14.578125 C 8.226562 -13.554688 7.765625 -12.132812 7.765625 -10.3125 L 7.765625 0 Z M 2.625 0 "/></g></g></g><g fill="#000000" fill-opacity="1"><g transform="translate(41.423434, 40.517645)"><g><path d="M 12.40625 0.484375 C 10.363281 0.484375 8.5625 0.0390625 7 -0.84375 C 5.445312 -1.726562 4.21875 -2.960938 3.3125 -4.546875 C 2.414062 -6.128906 1.96875 -7.941406 1.96875 -9.984375 C 1.96875 -12.023438 2.414062 -13.835938 3.3125 -15.421875 C 4.21875 -17.003906 5.445312 -18.238281 7 -19.125 C 8.5625 -20.007812 10.363281 -20.453125 12.40625 -20.453125 C 14.957031 -20.453125 17.101562 -19.785156 18.84375 -18.453125 C 20.59375 -17.128906 21.707031 -15.300781 22.1875 -12.96875 L 16.75 -12.96875 C 16.476562 -13.9375 15.945312 -14.691406 15.15625 -15.234375 C 14.363281 -15.785156 13.429688 -16.0625 12.359375 -16.0625 C 10.941406 -16.0625 9.734375 -15.523438 8.734375 -14.453125 C 7.742188 -13.378906 7.25 -11.890625 7.25 -9.984375 C 7.25 -8.078125 7.742188 -6.585938 8.734375 -5.515625 C 9.734375 -4.441406 10.941406 -3.90625 12.359375 -3.90625 C 13.429688 -3.90625 14.363281 -4.171875 15.15625 -4.703125 C 15.945312 -5.242188 16.476562 -6.007812 16.75 -7 L 22.1875 -7 C 21.707031 -4.75 20.59375 -2.9375 18.84375 -1.5625 C 17.101562 -0.195312 14.957031 0.484375 12.40625 0.484375 Z M 12.40625 0.484375 "/></g></g></g><g fill="#000000" fill-opacity="1"><g transform="translate(62.238821, 40.517645)"><g><path d="M 12.203125 0.484375 C 10.265625 0.484375 8.523438 0.0390625 6.984375 -0.84375 C 5.441406 -1.726562 4.21875 -2.957031 3.3125 -4.53125 C 2.414062 -6.101562 1.96875 -7.921875 1.96875 -9.984375 C 1.96875 -12.054688 2.425781 -13.875 3.34375 -15.4375 C 4.257812 -17.007812 5.488281 -18.238281 7.03125 -19.125 C 8.570312 -20.007812 10.304688 -20.453125 12.234375 -20.453125 C 14.140625 -20.453125 15.863281 -20.007812 17.40625 -19.125 C 18.957031 -18.238281 20.179688 -17.007812 21.078125 -15.4375 C 21.972656 -13.875 22.421875 -12.054688 22.421875 -9.984375 C 22.421875 -7.921875 21.972656 -6.101562 21.078125 -4.53125 C 20.179688 -2.957031 18.953125 -1.726562 17.390625 -0.84375 C 15.835938 0.0390625 14.109375 0.484375 12.203125 0.484375 Z M 12.203125 -3.984375 C 13.546875 -3.984375 14.710938 -4.484375 15.703125 -5.484375 C 16.691406 -6.492188 17.1875 -7.992188 17.1875 -9.984375 C 17.1875 -11.972656 16.691406 -13.46875 15.703125 -14.46875 C 14.710938 -15.476562 13.554688 -15.984375 12.234375 -15.984375 C 10.867188 -15.984375 9.695312 -15.476562 8.71875 -14.46875 C 7.738281 -13.46875 7.25 -11.972656 7.25 -9.984375 C 7.25 -7.992188 7.738281 -6.492188 8.71875 -5.484375 C 9.695312 -4.484375 10.859375 -3.984375 12.203125 -3.984375 Z M 12.203125 -3.984375 "/></g></g></g><g fill="#000000" fill-opacity="1"><g transform="translate(83.295784, 40.517645)"><g><path d="M 2.625 0 L 2.625 -19.96875 L 7.171875 -19.96875 L 7.5625 -16.59375 C 8.1875 -17.769531 9.082031 -18.707031 10.25 -19.40625 C 11.414062 -20.101562 12.789062 -20.453125 14.375 -20.453125 C 16.84375 -20.453125 18.757812 -19.671875 20.125 -18.109375 C 21.5 -16.554688 22.1875 -14.28125 22.1875 -11.28125 L 22.1875 0 L 17.03125 0 L 17.03125 -10.796875 C 17.03125 -12.515625 16.679688 -13.828125 15.984375 -14.734375 C 15.285156 -15.648438 14.195312 -16.109375 12.71875 -16.109375 C 11.269531 -16.109375 10.082031 -15.597656 9.15625 -14.578125 C 8.226562 -13.554688 7.765625 -12.132812 7.765625 -10.3125 L 7.765625 0 Z M 2.625 0 "/></g></g></g><g fill="#000000" fill-opacity="1"><g transform="translate(104.433274, 40.517645)"><g><path d="M 11.515625 0 C 9.421875 0 7.742188 -0.507812 6.484375 -1.53125 C 5.222656 -2.550781 4.59375 -4.363281 4.59375 -6.96875 L 4.59375 -15.65625 L 1.171875 -15.65625 L 1.171875 -19.96875 L 4.59375 -19.96875 L 5.1875 -25.328125 L 9.75 -25.328125 L 9.75 -19.96875 L 15.140625 -19.96875 L 15.140625 -15.65625 L 9.75 -15.65625 L 9.75 -6.921875 C 9.75 -5.953125 9.957031 -5.285156 10.375 -4.921875 C 10.789062 -4.566406 11.503906 -4.390625 12.515625 -4.390625 L 15.015625 -4.390625 L 15.015625 0 Z M 11.515625 0 "/></g></g></g><g fill="#000000" fill-opacity="1"><g transform="translate(118.04156, 40.517645)"><g><path d="M 2.625 0 L 2.625 -19.96875 L 7.203125 -19.96875 L 7.6875 -16.234375 C 8.414062 -17.515625 9.398438 -18.535156 10.640625 -19.296875 C 11.890625 -20.066406 13.363281 -20.453125 15.0625 -20.453125 L 15.0625 -15.015625 L 13.609375 -15.015625 C 12.484375 -15.015625 11.476562 -14.835938 10.59375 -14.484375 C 9.707031 -14.140625 9.015625 -13.535156 8.515625 -12.671875 C 8.015625 -11.816406 7.765625 -10.625 7.765625 -9.09375 L 7.765625 0 Z M 2.625 0 "/></g></g></g><g fill="#000000" fill-opacity="1"><g transform="translate(130.643265, 40.517645)"><g><path d="M 12.328125 0.484375 C 10.304688 0.484375 8.515625 0.0546875 6.953125 -0.796875 C 5.398438 -1.660156 4.179688 -2.867188 3.296875 -4.421875 C 2.410156 -5.984375 1.96875 -7.785156 1.96875 -9.828125 C 1.96875 -11.890625 2.40625 -13.722656 3.28125 -15.328125 C 4.15625 -16.941406 5.363281 -18.195312 6.90625 -19.09375 C 8.445312 -20 10.265625 -20.453125 12.359375 -20.453125 C 14.316406 -20.453125 16.046875 -20.019531 17.546875 -19.15625 C 19.054688 -18.300781 20.234375 -17.128906 21.078125 -15.640625 C 21.921875 -14.148438 22.34375 -12.492188 22.34375 -10.671875 C 22.34375 -10.378906 22.335938 -10.070312 22.328125 -9.75 C 22.316406 -9.425781 22.296875 -9.085938 22.265625 -8.734375 L 7.09375 -8.734375 C 7.195312 -7.179688 7.738281 -5.960938 8.71875 -5.078125 C 9.695312 -4.191406 10.882812 -3.75 12.28125 -3.75 C 13.320312 -3.75 14.195312 -3.984375 14.90625 -4.453125 C 15.625 -4.921875 16.160156 -5.53125 16.515625 -6.28125 L 21.75 -6.28125 C 21.363281 -5.019531 20.734375 -3.867188 19.859375 -2.828125 C 18.992188 -1.796875 17.921875 -0.984375 16.640625 -0.390625 C 15.367188 0.191406 13.929688 0.484375 12.328125 0.484375 Z M 12.359375 -16.265625 C 11.097656 -16.265625 9.984375 -15.910156 9.015625 -15.203125 C 8.046875 -14.492188 7.429688 -13.410156 7.171875 -11.953125 L 17.109375 -11.953125 C 17.023438 -13.273438 16.539062 -14.320312 15.65625 -15.09375 C 14.769531 -15.875 13.671875 -16.265625 12.359375 -16.265625 Z M 12.359375 -16.265625 "/></g></g></g><g fill="#000000" fill-opacity="1"><g transform="translate(151.37813, 40.517645)"><g/></g></g><g fill="#000000" fill-opacity="1"><g transform="translate(157.620013, 40.517645)"><g><path d="M 1.203125 0 L 11.59375 -28.1875 L 15.1875 -28.1875 L 25.53125 0 L 21.9375 0 L 19.375 -7.25 L 7.375 -7.25 L 4.75 0 Z M 8.375 -9.984375 L 18.359375 -9.984375 L 13.375 -23.921875 Z M 8.375 -9.984375 "/></g></g></g><g fill="#000000" fill-opacity="1"><g transform="translate(181.012241, 40.517645)"><g><path d="M 19.171875 8.859375 L 19.171875 -3.296875 C 18.523438 -2.335938 17.597656 -1.46875 16.390625 -0.6875 C 15.179688 0.09375 13.664062 0.484375 11.84375 0.484375 C 9.851562 0.484375 8.113281 0.03125 6.625 -0.875 C 5.132812 -1.789062 3.976562 -3.039062 3.15625 -4.625 C 2.34375 -6.207031 1.9375 -8.007812 1.9375 -10.03125 C 1.9375 -12.039062 2.347656 -13.828125 3.171875 -15.390625 C 4.003906 -16.960938 5.160156 -18.195312 6.640625 -19.09375 C 8.117188 -20 9.863281 -20.453125 11.875 -20.453125 C 13.507812 -20.453125 14.957031 -20.113281 16.21875 -19.4375 C 17.488281 -18.769531 18.472656 -17.832031 19.171875 -16.625 L 19.484375 -19.96875 L 22.546875 -19.96875 L 22.546875 8.859375 Z M 12.203125 -2.453125 C 13.546875 -2.453125 14.734375 -2.765625 15.765625 -3.390625 C 16.796875 -4.023438 17.597656 -4.90625 18.171875 -6.03125 C 18.753906 -7.164062 19.046875 -8.484375 19.046875 -9.984375 C 19.046875 -11.484375 18.753906 -12.796875 18.171875 -13.921875 C 17.597656 -15.054688 16.796875 -15.9375 15.765625 -16.5625 C 14.734375 -17.195312 13.546875 -17.515625 12.203125 -17.515625 C 10.890625 -17.515625 9.710938 -17.195312 8.671875 -16.5625 C 7.640625 -15.9375 6.832031 -15.054688 6.25 -13.921875 C 5.675781 -12.796875 5.390625 -11.484375 5.390625 -9.984375 C 5.390625 -8.484375 5.675781 -7.164062 6.25 -6.03125 C 6.832031 -4.90625 7.640625 -4.023438 8.671875 -3.390625 C 9.710938 -2.765625 10.890625 -2.453125 12.203125 -2.453125 Z M 12.203125 -2.453125 "/></g></g></g><g fill="#000000" fill-opacity="1"><g transform="translate(202.954993, 40.517645)"><g><path d="M 10.0625 0.484375 C 7.695312 0.484375 5.816406 -0.234375 4.421875 -1.671875 C 3.023438 -3.109375 2.328125 -5.316406 2.328125 -8.296875 L 2.328125 -19.96875 L 5.71875 -19.96875 L 5.71875 -8.65625 C 5.71875 -4.5 7.421875 -2.421875 10.828125 -2.421875 C 12.578125 -2.421875 14.019531 -3.039062 15.15625 -4.28125 C 16.300781 -5.53125 16.875 -7.3125 16.875 -9.625 L 16.875 -19.96875 L 20.25 -19.96875 L 20.25 0 L 17.1875 0 L 16.953125 -3.578125 C 16.335938 -2.316406 15.414062 -1.320312 14.1875 -0.59375 C 12.96875 0.125 11.59375 0.484375 10.0625 0.484375 Z M 10.0625 0.484375 "/></g></g></g><g fill="#000000" fill-opacity="1"><g transform="translate(222.643008, 40.517645)"><g><path d="M 4.828125 -24.40625 C 4.160156 -24.40625 3.601562 -24.625 3.15625 -25.0625 C 2.71875 -25.507812 2.5 -26.066406 2.5 -26.734375 C 2.5 -27.378906 2.71875 -27.914062 3.15625 -28.34375 C 3.601562 -28.769531 4.160156 -28.984375 4.828125 -28.984375 C 5.472656 -28.984375 6.023438 -28.769531 6.484375 -28.34375 C 6.941406 -27.914062 7.171875 -27.378906 7.171875 -26.734375 C 7.171875 -26.066406 6.941406 -25.507812 6.484375 -25.0625 C 6.023438 -24.625 5.472656 -24.40625 4.828125 -24.40625 Z M 3.140625 0 L 3.140625 -19.96875 L 6.515625 -19.96875 L 6.515625 0 Z M 3.140625 0 "/></g></g></g></g></g><g transform="matrix(1, 0, 0, 1, 467, 369)"><g clip-path="url(#d77ed2d05b)"><g fill="#ffca45" fill-opacity="1"><g transform="translate(0.592217, 82.204057)"><g><path d="M 7.109375 0 L 7.109375 -39.640625 L 13.515625 -39.640625 L 13.515625 0 Z M 5.125 -51.1875 C 5.125 -52.65625 5.59375 -53.859375 6.53125 -54.796875 C 7.46875 -55.742188 8.726562 -56.21875 10.3125 -56.21875 C 11.894531 -56.21875 13.144531 -55.742188 14.0625 -54.796875 C 14.976562 -53.859375 15.4375 -52.65625 15.4375 -51.1875 C 15.4375 -49.757812 14.976562 -48.570312 14.0625 -47.625 C 13.144531 -46.6875 11.894531 -46.21875 10.3125 -46.21875 C 8.726562 -46.21875 7.46875 -46.6875 6.53125 -47.625 C 5.59375 -48.570312 5.125 -49.757812 5.125 -51.1875 Z M 5.125 -51.1875 "/></g></g></g><g fill="#ffca45" fill-opacity="1"><g transform="translate(12.73852, 82.204057)"><g><path d="M 7.109375 0 L 7.109375 -39.640625 L 12.375 -39.640625 L 12.984375 -34.6875 C 16.035156 -38.65625 20.335938 -40.640625 25.890625 -40.640625 C 29.046875 -40.640625 31.820312 -39.976562 34.21875 -38.65625 C 36.613281 -37.332031 38.472656 -35.394531 39.796875 -32.84375 C 43.003906 -38.039062 47.921875 -40.640625 54.546875 -40.640625 C 59.535156 -40.640625 63.519531 -39.035156 66.5 -35.828125 C 69.476562 -32.617188 70.96875 -28.238281 70.96875 -22.6875 L 70.96875 0 L 64.546875 0 L 64.546875 -21.625 C 64.546875 -25.539062 63.566406 -28.671875 61.609375 -31.015625 C 59.648438 -33.359375 57.015625 -34.53125 53.703125 -34.53125 C 50.285156 -34.53125 47.519531 -33.304688 45.40625 -30.859375 C 43.300781 -28.410156 42.25 -25.148438 42.25 -21.078125 L 42.25 0 L 35.828125 0 L 35.828125 -21.625 C 35.828125 -25.539062 34.84375 -28.671875 32.875 -31.015625 C 30.914062 -33.359375 28.285156 -34.53125 24.984375 -34.53125 C 21.566406 -34.53125 18.800781 -33.304688 16.6875 -30.859375 C 14.570312 -28.410156 13.515625 -25.148438 13.515625 -21.078125 L 13.515625 0 Z M 7.109375 0 "/></g></g></g><g fill="#ffca45" fill-opacity="1"><g transform="translate(81.570179, 82.204057)"><g><path d="M 24.984375 1 C 20.859375 1 17.210938 0.109375 14.046875 -1.671875 C 10.890625 -3.460938 8.421875 -5.9375 6.640625 -9.09375 C 4.859375 -12.25 3.96875 -15.835938 3.96875 -19.859375 C 3.96875 -23.929688 4.859375 -27.519531 6.640625 -30.625 C 8.421875 -33.738281 10.890625 -36.1875 14.046875 -37.96875 C 17.210938 -39.75 20.859375 -40.640625 24.984375 -40.640625 C 29.109375 -40.640625 32.75 -39.75 35.90625 -37.96875 C 39.0625 -36.1875 41.53125 -33.738281 43.3125 -30.625 C 45.09375 -27.519531 45.984375 -23.929688 45.984375 -19.859375 C 45.984375 -15.835938 45.09375 -12.25 43.3125 -9.09375 C 41.53125 -5.9375 39.0625 -3.460938 35.90625 -1.671875 C 32.75 0.109375 29.109375 1 24.984375 1 Z M 10.390625 -19.859375 C 10.390625 -16.953125 11.007812 -14.390625 12.25 -12.171875 C 13.5 -9.960938 15.21875 -8.242188 17.40625 -7.015625 C 19.601562 -5.796875 22.128906 -5.1875 24.984375 -5.1875 C 27.828125 -5.1875 30.34375 -5.796875 32.53125 -7.015625 C 34.726562 -8.242188 36.453125 -9.960938 37.703125 -12.171875 C 38.953125 -14.390625 39.578125 -16.953125 39.578125 -19.859375 C 39.578125 -22.765625 38.953125 -25.3125 37.703125 -27.5 C 36.453125 -29.6875 34.726562 -31.40625 32.53125 -32.65625 C 30.34375 -33.90625 27.828125 -34.53125 24.984375 -34.53125 C 22.128906 -34.53125 19.601562 -33.90625 17.40625 -32.65625 C 15.21875 -31.40625 13.5 -29.6875 12.25 -27.5 C 11.007812 -25.3125 10.390625 -22.765625 10.390625 -19.859375 Z M 21.390625 -45.90625 L 25.671875 -57.671875 L 32.546875 -57.671875 L 27.34375 -45.90625 Z M 21.390625 -45.90625 "/></g></g></g><g fill="#ffca45" fill-opacity="1"><g transform="translate(123.052304, 82.204057)"><g><path d="M 18.5625 0 L 1.21875 -39.640625 L 8.171875 -39.640625 L 13.59375 -27.125 L 21.6875 -8.5625 L 29.71875 -27.125 L 35.21875 -39.640625 L 42.171875 -39.640625 L 24.75 0 Z M 18.5625 0 "/></g></g></g><g fill="#ffca45" fill-opacity="1"><g transform="translate(157.964422, 82.204057)"><g><path d="M 24.296875 1 C 20.316406 1 16.800781 0.117188 13.75 -1.640625 C 10.695312 -3.398438 8.300781 -5.859375 6.5625 -9.015625 C 4.832031 -12.171875 3.96875 -15.785156 3.96875 -19.859375 C 3.96875 -23.929688 4.832031 -27.535156 6.5625 -30.671875 C 8.300781 -33.804688 10.707031 -36.25 13.78125 -38 C 16.863281 -39.757812 20.394531 -40.640625 24.375 -40.640625 C 28.59375 -40.640625 32.253906 -39.644531 35.359375 -37.65625 C 38.472656 -35.675781 40.859375 -32.941406 42.515625 -29.453125 C 44.171875 -25.960938 44.921875 -21.898438 44.765625 -17.265625 L 10.46875 -17.265625 C 10.976562 -13.546875 12.476562 -10.578125 14.96875 -8.359375 C 17.46875 -6.148438 20.601562 -5.046875 24.375 -5.046875 C 26.96875 -5.046875 29.332031 -5.601562 31.46875 -6.71875 C 33.613281 -7.84375 35.296875 -9.445312 36.515625 -11.53125 L 43.765625 -11.53125 C 42.191406 -7.664062 39.671875 -4.609375 36.203125 -2.359375 C 32.742188 -0.117188 28.773438 1 24.296875 1 Z M 10.546875 -22.921875 L 38.34375 -22.921875 C 37.6875 -26.535156 36.097656 -29.382812 33.578125 -31.46875 C 31.054688 -33.5625 27.988281 -34.609375 24.375 -34.609375 C 20.707031 -34.609375 17.625 -33.535156 15.125 -31.390625 C 12.625 -29.253906 11.097656 -26.429688 10.546875 -22.921875 Z M 10.546875 -22.921875 "/></g></g></g><g fill="#ffca45" fill-opacity="1"><g transform="translate(198.071425, 82.204057)"><g><path d="M 7.109375 0 L 7.109375 -39.640625 L 13.515625 -39.640625 L 13.515625 0 Z M 5.125 -51.1875 C 5.125 -52.65625 5.59375 -53.859375 6.53125 -54.796875 C 7.46875 -55.742188 8.726562 -56.21875 10.3125 -56.21875 C 11.894531 -56.21875 13.144531 -55.742188 14.0625 -54.796875 C 14.976562 -53.859375 15.4375 -52.65625 15.4375 -51.1875 C 15.4375 -49.757812 14.976562 -48.570312 14.0625 -47.625 C 13.144531 -46.6875 11.894531 -46.21875 10.3125 -46.21875 C 8.726562 -46.21875 7.46875 -46.6875 6.53125 -47.625 C 5.59375 -48.570312 5.125 -49.757812 5.125 -51.1875 Z M 5.125 -51.1875 "/></g></g></g><g fill="#ffca45" fill-opacity="1"><g transform="translate(210.217735, 82.204057)"><g><path d="M 21.46875 1 C 16.269531 1 12.101562 -0.234375 8.96875 -2.703125 C 5.84375 -5.179688 4.226562 -8.429688 4.125 -12.453125 L 10.46875 -12.453125 C 10.570312 -10.054688 11.585938 -8.171875 13.515625 -6.796875 C 15.453125 -5.421875 18.128906 -4.734375 21.546875 -4.734375 C 24.546875 -4.734375 26.910156 -5.253906 28.640625 -6.296875 C 30.378906 -7.347656 31.25 -8.765625 31.25 -10.546875 C 31.25 -12.328125 30.34375 -13.773438 28.53125 -14.890625 C 26.71875 -16.015625 23.878906 -16.90625 20.015625 -17.5625 C 14.921875 -18.4375 11.140625 -19.835938 8.671875 -21.765625 C 6.203125 -23.703125 4.96875 -26.222656 4.96875 -29.328125 C 4.96875 -32.898438 6.328125 -35.675781 9.046875 -37.65625 C 11.773438 -39.644531 15.53125 -40.640625 20.3125 -40.640625 C 25.207031 -40.640625 29.117188 -39.554688 32.046875 -37.390625 C 34.972656 -35.222656 36.566406 -32.179688 36.828125 -28.265625 L 30.484375 -28.265625 C 30.273438 -30.453125 29.289062 -32.117188 27.53125 -33.265625 C 25.78125 -34.410156 23.398438 -34.984375 20.390625 -34.984375 C 17.546875 -34.984375 15.320312 -34.484375 13.71875 -33.484375 C 12.113281 -32.492188 11.3125 -31.109375 11.3125 -29.328125 C 11.3125 -27.648438 12.125 -26.335938 13.75 -25.390625 C 15.375 -24.453125 18.25 -23.578125 22.375 -22.765625 C 32.507812 -20.773438 37.578125 -16.648438 37.578125 -10.390625 C 37.578125 -6.972656 36.113281 -4.21875 33.1875 -2.125 C 30.257812 -0.0390625 26.351562 1 21.46875 1 Z M 21.46875 1 "/></g></g></g></g></g><path fill="#ffffff" d="M 338.058594 441.75 L 426.269531 441.75 L 426.269531 368.242188 L 382.164062 338.839844 L 338.058594 368.242188 Z M 338.058594 441.75 " fill-opacity="1" fill-rule="nonzero"/><path fill="#ffca45" d="M 455.675781 434.402344 C 455.675781 435.363281 455.628906 436.324219 455.53125 437.28125 C 455.4375 438.242188 455.296875 439.191406 455.109375 440.136719 C 454.921875 441.082031 454.6875 442.015625 454.410156 442.9375 C 454.128906 443.859375 453.804688 444.761719 453.4375 445.652344 C 453.066406 446.542969 452.65625 447.414062 452.203125 448.261719 C 451.75 449.109375 451.253906 449.9375 450.71875 450.738281 C 450.183594 451.539062 449.609375 452.308594 449 453.054688 C 448.390625 453.800781 447.742188 454.511719 447.0625 455.191406 C 446.382812 455.875 445.667969 456.519531 444.925781 457.128906 C 444.179688 457.742188 443.40625 458.3125 442.605469 458.847656 C 441.804688 459.382812 440.980469 459.878906 440.132812 460.332031 C 439.28125 460.785156 438.414062 461.199219 437.523438 461.566406 C 436.632812 461.933594 435.726562 462.257812 434.804688 462.539062 C 433.882812 462.816406 432.953125 463.050781 432.007812 463.238281 C 431.0625 463.425781 430.109375 463.570312 429.152344 463.664062 C 428.195312 463.757812 427.234375 463.804688 426.269531 463.804688 C 425.308594 463.804688 424.347656 463.757812 423.390625 463.664062 C 422.429688 463.570312 421.480469 463.425781 420.535156 463.238281 C 419.589844 463.050781 418.65625 462.816406 417.734375 462.539062 C 416.8125 462.257812 415.90625 461.933594 415.019531 461.566406 C 414.128906 461.199219 413.257812 460.785156 412.410156 460.332031 C 411.5625 459.878906 410.734375 459.382812 409.933594 458.847656 C 409.132812 458.3125 408.363281 457.742188 407.617188 457.128906 C 406.871094 456.519531 406.160156 455.875 405.480469 455.191406 C 404.796875 454.511719 404.152344 453.800781 403.542969 453.054688 C 402.929688 452.308594 402.359375 451.539062 401.824219 450.738281 C 401.289062 449.9375 400.792969 449.109375 400.339844 448.261719 C 399.886719 447.414062 399.472656 446.542969 399.105469 445.652344 C 398.738281 444.761719 398.414062 443.859375 398.132812 442.9375 C 397.855469 442.015625 397.621094 441.082031 397.433594 440.136719 C 397.246094 439.191406 397.101562 438.242188 397.007812 437.28125 C 396.914062 436.324219 396.867188 435.363281 396.867188 434.402344 C 396.867188 433.4375 396.914062 432.476562 397.007812 431.519531 C 397.101562 430.5625 397.246094 429.609375 397.433594 428.664062 C 397.621094 427.71875 397.855469 426.789062 398.132812 425.867188 C 398.414062 424.945312 398.738281 424.039062 399.105469 423.148438 C 399.472656 422.257812 399.886719 421.390625 400.339844 420.539062 C 400.792969 419.691406 401.289062 418.867188 401.824219 418.066406 C 402.359375 417.265625 402.929688 416.492188 403.542969 415.746094 C 404.152344 415.003906 404.796875 414.289062 405.480469 413.609375 C 406.160156 412.929688 406.871094 412.28125 407.617188 411.671875 C 408.363281 411.0625 409.132812 410.488281 409.933594 409.953125 C 410.734375 409.417969 411.5625 408.921875 412.410156 408.46875 C 413.257812 408.015625 414.128906 407.605469 415.019531 407.234375 C 415.90625 406.867188 416.8125 406.542969 417.734375 406.261719 C 418.65625 405.984375 419.589844 405.75 420.535156 405.5625 C 421.480469 405.375 422.429688 405.234375 423.390625 405.140625 C 424.347656 405.042969 425.308594 404.996094 426.269531 404.996094 C 427.234375 404.996094 428.195312 405.042969 429.152344 405.140625 C 430.109375 405.234375 431.0625 405.375 432.007812 405.5625 C 432.953125 405.75 433.882812 405.984375 434.804688 406.261719 C 435.726562 406.542969 436.632812 406.867188 437.523438 407.234375 C 438.414062 407.605469 439.28125 408.015625 440.132812 408.46875 C 440.980469 408.921875 441.804688 409.417969 442.605469 409.953125 C 443.40625 410.488281 444.179688 411.0625 444.925781 411.671875 C 445.667969 412.28125 446.382812 412.929688 447.0625 413.609375 C 447.742188 414.289062 448.390625 415.003906 449 415.746094 C 449.609375 416.492188 450.183594 417.265625 450.71875 418.066406 C 451.253906 418.867188 451.75 419.691406 452.203125 420.539062 C 452.65625 421.390625 453.066406 422.257812 453.4375 423.148438 C 453.804688 424.039062 454.128906 424.945312 454.410156 425.867188 C 454.6875 426.789062 454.921875 427.71875 455.109375 428.664062 C 455.296875 429.609375 455.4375 430.5625 455.53125 431.519531 C 455.628906 432.476562 455.675781 433.4375 455.675781 434.402344 Z M 455.675781 434.402344 " fill-opacity="1" fill-rule="nonzero"/><path fill="#cc9e3a" d="M 433.621094 462.847656 C 431.214844 463.507812 428.765625 463.828125 426.269531 463.804688 C 425.308594 463.804688 424.347656 463.757812 423.390625 463.664062 C 422.429688 463.570312 421.480469 463.425781 420.535156 463.238281 C 419.589844 463.050781 418.65625 462.816406 417.734375 462.539062 C 416.8125 462.257812 415.90625 461.933594 415.019531 461.566406 C 414.128906 461.199219 413.257812 460.785156 412.410156 460.332031 C 411.5625 459.878906 410.734375 459.382812 409.933594 458.847656 C 409.132812 458.3125 408.363281 457.742188 407.617188 457.128906 C 406.871094 456.519531 406.160156 455.875 405.480469 455.191406 C 404.796875 454.511719 404.152344 453.800781 403.542969 453.054688 C 402.929688 452.308594 402.359375 451.539062 401.824219 450.738281 C 401.289062 449.9375 400.792969 449.109375 400.339844 448.261719 C 399.886719 447.414062 399.472656 446.542969 399.105469 445.652344 C 398.738281 444.761719 398.414062 443.859375 398.132812 442.9375 C 397.855469 442.015625 397.621094 441.082031 397.433594 440.136719 C 397.246094 439.191406 397.101562 438.242188 397.007812 437.28125 C 396.914062 436.324219 396.867188 435.363281 396.867188 434.402344 C 396.867188 433.4375 396.914062 432.476562 397.007812 431.519531 C 397.101562 430.5625 397.246094 429.609375 397.433594 428.664062 C 397.621094 427.71875 397.855469 426.789062 398.132812 425.867188 C 398.414062 424.945312 398.738281 424.039062 399.105469 423.148438 C 399.472656 422.257812 399.886719 421.390625 400.339844 420.539062 C 400.792969 419.691406 401.289062 418.867188 401.824219 418.066406 C 402.359375 417.265625 402.929688 416.492188 403.542969 415.746094 C 404.152344 415.003906 404.796875 414.289062 405.480469 413.609375 C 406.160156 412.929688 406.871094 412.28125 407.617188 411.671875 C 408.363281 411.0625 409.132812 410.488281 409.933594 409.953125 C 410.734375 409.417969 411.5625 408.921875 412.410156 408.46875 C 413.257812 408.015625 414.128906 407.605469 415.019531 407.234375 C 415.90625 406.867188 416.8125 406.542969 417.734375 406.261719 C 418.65625 405.984375 419.589844 405.75 420.535156 405.5625 C 421.480469 405.375 422.429688 405.234375 423.390625 405.140625 C 424.347656 405.042969 425.308594 404.996094 426.269531 404.996094 C 428.765625 404.976562 431.214844 405.292969 433.621094 405.953125 C 432.054688 406.355469 430.53125 406.886719 429.050781 407.539062 C 427.574219 408.195312 426.15625 408.96875 424.804688 409.855469 C 423.453125 410.746094 422.183594 411.738281 420.996094 412.835938 C 419.808594 413.9375 418.71875 415.125 417.726562 416.402344 C 416.734375 417.683594 415.855469 419.035156 415.089844 420.457031 C 414.320312 421.882812 413.675781 423.359375 413.148438 424.890625 C 412.625 426.421875 412.230469 427.984375 411.964844 429.578125 C 411.699219 431.175781 411.566406 432.78125 411.566406 434.402344 C 411.566406 436.019531 411.699219 437.625 411.964844 439.222656 C 412.230469 440.816406 412.625 442.382812 413.148438 443.914062 C 413.675781 445.441406 414.320312 446.921875 415.089844 448.34375 C 415.855469 449.769531 416.734375 451.121094 417.726562 452.398438 C 418.71875 453.675781 419.808594 454.867188 420.996094 455.964844 C 422.183594 457.0625 423.453125 458.058594 424.804688 458.945312 C 426.15625 459.835938 427.574219 460.605469 429.050781 461.261719 C 430.53125 461.917969 432.054688 462.445312 433.621094 462.847656 Z M 433.621094 462.847656 " fill-opacity="1" fill-rule="nonzero"/><path fill="#bcbec0" d="M 393.925781 348.617188 L 352.761719 375.59375 L 352.761719 441.75 L 338.058594 441.75 L 338.058594 368.242188 L 382.164062 338.839844 Z M 393.925781 348.617188 " fill-opacity="1" fill-rule="nonzero"/><path fill="#000000" d="M 374.8125 434.402344 L 345.410156 434.402344 L 345.410156 374.128906 L 382.171875 347.875 L 418.917969 374.121094 L 418.917969 382.945312 C 418.917969 383.425781 418.96875 383.90625 419.0625 384.378906 C 419.15625 384.851562 419.292969 385.3125 419.480469 385.757812 C 419.664062 386.203125 419.890625 386.628906 420.160156 387.027344 C 420.425781 387.429688 420.730469 387.800781 421.074219 388.140625 C 421.414062 388.484375 421.785156 388.789062 422.1875 389.058594 C 422.589844 389.324219 423.011719 389.550781 423.457031 389.734375 C 423.902344 389.921875 424.363281 390.058594 424.835938 390.15625 C 425.308594 390.25 425.789062 390.296875 426.269531 390.296875 C 426.753906 390.296875 427.230469 390.25 427.703125 390.15625 C 428.179688 390.058594 428.636719 389.921875 429.082031 389.734375 C 429.53125 389.550781 429.953125 389.324219 430.355469 389.058594 C 430.757812 388.789062 431.128906 388.484375 431.46875 388.140625 C 431.808594 387.800781 432.113281 387.429688 432.382812 387.027344 C 432.652344 386.628906 432.878906 386.203125 433.0625 385.757812 C 433.246094 385.3125 433.386719 384.851562 433.480469 384.378906 C 433.574219 383.90625 433.621094 383.425781 433.621094 382.945312 L 433.621094 382.804688 C 434.800781 382.832031 435.917969 382.582031 436.972656 382.0625 C 438.027344 381.542969 438.90625 380.808594 439.601562 379.855469 C 439.882812 379.464844 440.121094 379.046875 440.320312 378.609375 C 440.519531 378.167969 440.671875 377.714844 440.78125 377.242188 C 440.890625 376.773438 440.953125 376.296875 440.96875 375.8125 C 440.984375 375.332031 440.949219 374.851562 440.871094 374.375 C 440.792969 373.898438 440.667969 373.4375 440.496094 372.984375 C 440.324219 372.535156 440.113281 372.101562 439.855469 371.691406 C 439.601562 371.285156 439.308594 370.902344 438.976562 370.550781 C 438.648438 370.199219 438.285156 369.882812 437.894531 369.601562 L 386.445312 332.855469 C 385.820312 332.410156 385.144531 332.070312 384.414062 331.835938 C 383.6875 331.605469 382.9375 331.488281 382.171875 331.488281 C 381.40625 331.488281 380.660156 331.605469 379.929688 331.835938 C 379.199219 332.070312 378.523438 332.410156 377.902344 332.855469 L 326.4375 369.609375 C 325.804688 370.0625 325.253906 370.601562 324.792969 371.230469 C 324.328125 371.855469 323.976562 372.539062 323.730469 373.277344 C 323.484375 374.015625 323.359375 374.777344 323.355469 375.554688 C 323.351562 376.335938 323.46875 377.09375 323.707031 377.835938 C 323.945312 378.578125 324.292969 379.265625 324.746094 379.894531 C 325.203125 380.527344 325.746094 381.074219 326.375 381.53125 C 327.003906 381.992188 327.6875 382.339844 328.429688 382.582031 C 329.171875 382.824219 329.929688 382.945312 330.710938 382.945312 L 330.710938 441.75 C 330.710938 442.234375 330.757812 442.710938 330.851562 443.1875 C 330.945312 443.660156 331.082031 444.117188 331.269531 444.566406 C 331.453125 445.011719 331.679688 445.433594 331.949219 445.835938 C 332.214844 446.238281 332.519531 446.609375 332.863281 446.949219 C 333.203125 447.292969 333.574219 447.597656 333.976562 447.863281 C 334.378906 448.132812 334.800781 448.359375 335.246094 448.542969 C 335.691406 448.726562 336.152344 448.867188 336.625 448.960938 C 337.097656 449.054688 337.578125 449.101562 338.058594 449.101562 L 374.8125 449.101562 C 375.296875 449.101562 375.773438 449.054688 376.25 448.960938 C 376.722656 448.867188 377.179688 448.726562 377.628906 448.542969 C 378.074219 448.359375 378.496094 448.132812 378.898438 447.863281 C 379.300781 447.597656 379.671875 447.292969 380.011719 446.949219 C 380.355469 446.609375 380.660156 446.238281 380.925781 445.835938 C 381.195312 445.433594 381.421875 445.011719 381.605469 444.566406 C 381.789062 444.117188 381.929688 443.660156 382.023438 443.1875 C 382.117188 442.710938 382.164062 442.234375 382.164062 441.75 C 382.164062 441.269531 382.117188 440.792969 382.023438 440.316406 C 381.929688 439.84375 381.789062 439.386719 381.605469 438.9375 C 381.421875 438.492188 381.195312 438.070312 380.925781 437.667969 C 380.660156 437.265625 380.355469 436.894531 380.011719 436.554688 C 379.671875 436.210938 379.300781 435.90625 378.898438 435.640625 C 378.496094 435.371094 378.074219 435.144531 377.628906 434.960938 C 377.179688 434.777344 376.722656 434.636719 376.25 434.542969 C 375.773438 434.449219 375.296875 434.402344 374.8125 434.402344 Z M 374.8125 434.402344 " fill-opacity="1" fill-rule="nonzero"/><path fill="#000000" d="M 374.8125 368.242188 C 374.332031 368.242188 373.855469 368.289062 373.378906 368.382812 C 372.90625 368.476562 372.449219 368.617188 372 368.800781 C 371.554688 368.988281 371.132812 369.214844 370.730469 369.480469 C 370.328125 369.75 369.957031 370.054688 369.617188 370.394531 C 369.273438 370.738281 368.96875 371.109375 368.703125 371.511719 C 368.433594 371.910156 368.207031 372.335938 368.023438 372.78125 C 367.839844 373.226562 367.699219 373.6875 367.605469 374.160156 C 367.511719 374.632812 367.464844 375.109375 367.464844 375.59375 C 367.464844 376.078125 367.511719 376.554688 367.605469 377.027344 C 367.699219 377.5 367.839844 377.960938 368.023438 378.40625 C 368.207031 378.851562 368.433594 379.277344 368.703125 379.675781 C 368.96875 380.078125 369.273438 380.449219 369.617188 380.792969 C 369.957031 381.132812 370.328125 381.4375 370.730469 381.707031 C 371.132812 381.972656 371.554688 382.199219 372 382.386719 C 372.449219 382.570312 372.90625 382.710938 373.378906 382.804688 C 373.855469 382.898438 374.332031 382.945312 374.8125 382.945312 L 389.515625 382.945312 C 390 382.945312 390.476562 382.898438 390.949219 382.804688 C 391.421875 382.710938 391.882812 382.570312 392.328125 382.386719 C 392.773438 382.199219 393.199219 381.972656 393.601562 381.707031 C 394 381.4375 394.371094 381.132812 394.714844 380.792969 C 395.054688 380.449219 395.359375 380.078125 395.628906 379.675781 C 395.894531 379.277344 396.121094 378.851562 396.308594 378.40625 C 396.492188 377.960938 396.632812 377.5 396.726562 377.027344 C 396.820312 376.554688 396.867188 376.078125 396.867188 375.59375 C 396.867188 375.109375 396.820312 374.632812 396.726562 374.160156 C 396.632812 373.6875 396.492188 373.226562 396.308594 372.78125 C 396.121094 372.335938 395.894531 371.910156 395.628906 371.511719 C 395.359375 371.109375 395.054688 370.738281 394.714844 370.394531 C 394.371094 370.054688 394 369.75 393.601562 369.480469 C 393.199219 369.214844 392.773438 368.988281 392.328125 368.800781 C 391.882812 368.617188 391.421875 368.476562 390.949219 368.382812 C 390.476562 368.289062 390 368.242188 389.515625 368.242188 Z M 374.8125 368.242188 " fill-opacity="1" fill-rule="nonzero"/><path fill="#000000" d="M 468.222656 465.957031 L 456.902344 454.636719 C 457.316406 454.011719 457.714844 453.371094 458.089844 452.71875 C 458.464844 452.066406 458.824219 451.402344 459.160156 450.726562 C 459.496094 450.054688 459.808594 449.371094 460.101562 448.675781 C 460.398438 447.984375 460.667969 447.28125 460.921875 446.570312 C 461.171875 445.863281 461.398438 445.144531 461.605469 444.421875 C 461.8125 443.695312 462 442.964844 462.160156 442.230469 C 462.324219 441.496094 462.460938 440.753906 462.578125 440.011719 C 462.695312 439.269531 462.789062 438.519531 462.859375 437.769531 C 462.933594 437.019531 462.980469 436.269531 463.003906 435.515625 C 463.03125 434.765625 463.03125 434.011719 463.011719 433.257812 C 462.988281 432.507812 462.945312 431.753906 462.878906 431.003906 C 462.8125 430.253906 462.722656 429.507812 462.609375 428.761719 C 462.496094 428.019531 462.359375 427.277344 462.203125 426.542969 C 462.042969 425.804688 461.863281 425.074219 461.660156 424.347656 C 461.457031 423.625 461.230469 422.90625 460.984375 422.195312 C 460.738281 421.484375 460.46875 420.78125 460.179688 420.085938 C 459.886719 419.390625 459.578125 418.703125 459.246094 418.027344 C 458.910156 417.351562 458.558594 416.6875 458.1875 416.035156 C 457.8125 415.378906 457.421875 414.738281 457.007812 414.105469 C 456.597656 413.476562 456.164062 412.859375 455.714844 412.253906 C 455.265625 411.652344 454.796875 411.0625 454.308594 410.488281 C 453.824219 409.914062 453.320312 409.351562 452.800781 408.808594 C 452.277344 408.265625 451.742188 407.738281 451.1875 407.226562 C 450.636719 406.714844 450.066406 406.21875 449.484375 405.742188 C 448.902344 405.265625 448.304688 404.808594 447.691406 404.367188 C 447.082031 403.929688 446.457031 403.507812 445.820312 403.105469 C 445.183594 402.703125 444.535156 402.324219 443.875 401.960938 C 443.214844 401.597656 442.542969 401.257812 441.863281 400.9375 C 441.179688 400.617188 440.488281 400.316406 439.789062 400.039062 C 439.089844 399.761719 438.382812 399.503906 437.667969 399.269531 C 436.953125 399.035156 436.230469 398.820312 435.5 398.628906 C 434.773438 398.4375 434.039062 398.269531 433.300781 398.125 C 432.5625 397.980469 431.816406 397.855469 431.070312 397.753906 C 430.324219 397.65625 429.578125 397.578125 428.824219 397.523438 C 428.074219 397.46875 427.324219 397.4375 426.570312 397.429688 C 425.816406 397.421875 425.0625 397.433594 424.3125 397.472656 C 423.558594 397.511719 422.808594 397.570312 422.058594 397.65625 C 421.3125 397.738281 420.566406 397.847656 419.824219 397.976562 C 419.082031 398.105469 418.347656 398.257812 417.613281 398.429688 C 416.878906 398.605469 416.152344 398.804688 415.433594 399.023438 C 414.714844 399.242188 414 399.480469 413.292969 399.746094 C 412.589844 400.007812 411.890625 400.292969 411.203125 400.597656 C 410.515625 400.902344 409.835938 401.230469 409.167969 401.578125 C 408.5 401.921875 407.84375 402.292969 407.195312 402.679688 C 406.550781 403.066406 405.917969 403.472656 405.296875 403.898438 C 404.675781 404.324219 404.070312 404.769531 403.476562 405.234375 C 402.882812 405.695312 402.300781 406.179688 401.738281 406.675781 C 401.175781 407.175781 400.625 407.691406 400.09375 408.222656 C 399.5625 408.757812 399.046875 409.304688 398.546875 409.871094 C 398.046875 410.433594 397.566406 411.011719 397.101562 411.605469 C 396.640625 412.199219 396.195312 412.808594 395.769531 413.425781 C 395.34375 414.046875 394.933594 414.683594 394.546875 415.328125 C 394.160156 415.972656 393.792969 416.628906 393.445312 417.300781 C 393.097656 417.96875 392.773438 418.644531 392.464844 419.332031 C 392.160156 420.023438 391.875 420.71875 391.613281 421.425781 C 391.351562 422.132812 391.109375 422.84375 390.890625 423.566406 C 390.671875 424.285156 390.476562 425.011719 390.300781 425.746094 C 390.125 426.476562 389.972656 427.214844 389.84375 427.957031 C 389.714844 428.699219 389.609375 429.441406 389.523438 430.191406 C 389.441406 430.941406 389.378906 431.691406 389.34375 432.441406 C 389.304688 433.195312 389.289062 433.945312 389.296875 434.699219 C 389.304688 435.453125 389.335938 436.207031 389.390625 436.957031 C 389.445312 437.707031 389.523438 438.457031 389.625 439.203125 C 389.726562 439.949219 389.847656 440.691406 389.992188 441.429688 C 390.140625 442.167969 390.308594 442.902344 390.5 443.632812 C 390.691406 444.359375 390.902344 445.082031 391.136719 445.796875 C 391.371094 446.511719 391.628906 447.222656 391.90625 447.921875 C 392.1875 448.621094 392.484375 449.3125 392.804688 449.992188 C 393.128906 450.671875 393.46875 451.34375 393.832031 452.003906 C 394.191406 452.664062 394.574219 453.316406 394.976562 453.953125 C 395.378906 454.589844 395.796875 455.210938 396.238281 455.824219 C 396.679688 456.433594 397.136719 457.03125 397.613281 457.617188 C 398.089844 458.199219 398.582031 458.765625 399.09375 459.320312 C 399.605469 459.871094 400.132812 460.410156 400.675781 460.929688 C 401.222656 461.449219 401.78125 461.953125 402.355469 462.441406 C 402.929688 462.925781 403.519531 463.394531 404.125 463.84375 C 404.726562 464.296875 405.34375 464.726562 405.976562 465.140625 C 406.605469 465.550781 407.246094 465.945312 407.902344 466.316406 C 408.554688 466.691406 409.222656 467.042969 409.898438 467.375 C 410.574219 467.707031 411.257812 468.019531 411.953125 468.308594 C 412.648438 468.597656 413.351562 468.867188 414.0625 469.113281 C 414.773438 469.363281 415.492188 469.585938 416.21875 469.789062 C 416.941406 469.992188 417.675781 470.175781 418.410156 470.332031 C 419.148438 470.492188 419.886719 470.625 420.632812 470.738281 C 421.375 470.851562 422.125 470.941406 422.875 471.007812 C 423.625 471.078125 424.375 471.121094 425.128906 471.140625 C 425.882812 471.164062 426.632812 471.160156 427.386719 471.136719 C 428.140625 471.109375 428.890625 471.0625 429.640625 470.992188 C 430.390625 470.921875 431.136719 470.828125 431.878906 470.710938 C 432.625 470.59375 433.363281 470.453125 434.101562 470.292969 C 434.835938 470.128906 435.566406 469.945312 436.289062 469.738281 C 437.011719 469.53125 437.730469 469.300781 438.441406 469.050781 C 439.152344 468.800781 439.851562 468.527344 440.546875 468.234375 C 441.238281 467.941406 441.921875 467.625 442.597656 467.289062 C 443.269531 466.953125 443.933594 466.597656 444.585938 466.222656 C 445.238281 465.84375 445.878906 465.449219 446.507812 465.03125 L 457.828125 476.351562 C 458.171875 476.6875 458.542969 476.984375 458.941406 477.246094 C 459.34375 477.507812 459.765625 477.730469 460.210938 477.90625 C 460.65625 478.085938 461.113281 478.222656 461.582031 478.3125 C 462.050781 478.402344 462.527344 478.445312 463.003906 478.441406 C 463.484375 478.4375 463.957031 478.386719 464.425781 478.292969 C 464.898438 478.199219 465.351562 478.058594 465.792969 477.871094 C 466.234375 477.6875 466.65625 477.460938 467.054688 477.195312 C 467.449219 476.929688 467.820312 476.625 468.15625 476.289062 C 468.496094 475.949219 468.796875 475.582031 469.066406 475.183594 C 469.332031 474.785156 469.558594 474.367188 469.742188 473.925781 C 469.925781 473.484375 470.066406 473.027344 470.160156 472.558594 C 470.257812 472.089844 470.308594 471.617188 470.308594 471.136719 C 470.3125 470.65625 470.269531 470.183594 470.179688 469.714844 C 470.089844 469.242188 469.957031 468.785156 469.777344 468.339844 C 469.597656 467.898438 469.378906 467.476562 469.117188 467.074219 C 468.855469 466.671875 468.554688 466.300781 468.222656 465.957031 Z M 404.21875 434.402344 C 404.21875 433.679688 404.253906 432.957031 404.324219 432.238281 C 404.394531 431.519531 404.5 430.808594 404.640625 430.097656 C 404.78125 429.390625 404.957031 428.691406 405.167969 428 C 405.378906 427.308594 405.621094 426.628906 405.898438 425.960938 C 406.171875 425.292969 406.480469 424.640625 406.820312 424.003906 C 407.164062 423.367188 407.535156 422.75 407.933594 422.148438 C 408.335938 421.546875 408.765625 420.96875 409.222656 420.410156 C 409.683594 419.851562 410.167969 419.316406 410.675781 418.808594 C 411.1875 418.296875 411.722656 417.8125 412.28125 417.355469 C 412.839844 416.894531 413.417969 416.464844 414.019531 416.066406 C 414.621094 415.664062 415.238281 415.292969 415.875 414.953125 C 416.511719 414.613281 417.164062 414.304688 417.832031 414.027344 C 418.5 413.75 419.179688 413.507812 419.871094 413.296875 C 420.558594 413.089844 421.261719 412.914062 421.96875 412.773438 C 422.675781 412.632812 423.390625 412.523438 424.109375 412.453125 C 424.828125 412.382812 425.546875 412.347656 426.269531 412.347656 C 426.992188 412.347656 427.714844 412.382812 428.433594 412.453125 C 429.152344 412.523438 429.863281 412.632812 430.574219 412.773438 C 431.28125 412.914062 431.980469 413.089844 432.671875 413.296875 C 433.363281 413.507812 434.042969 413.75 434.710938 414.027344 C 435.378906 414.304688 436.03125 414.613281 436.667969 414.953125 C 437.304688 415.292969 437.921875 415.664062 438.523438 416.066406 C 439.125 416.464844 439.703125 416.894531 440.261719 417.355469 C 440.820312 417.8125 441.355469 418.296875 441.863281 418.808594 C 442.375 419.316406 442.859375 419.851562 443.316406 420.410156 C 443.777344 420.96875 444.207031 421.546875 444.605469 422.148438 C 445.007812 422.75 445.378906 423.367188 445.71875 424.003906 C 446.058594 424.640625 446.367188 425.292969 446.644531 425.960938 C 446.921875 426.628906 447.164062 427.308594 447.375 428 C 447.582031 428.691406 447.757812 429.390625 447.898438 430.097656 C 448.039062 430.808594 448.148438 431.519531 448.21875 432.238281 C 448.289062 432.957031 448.324219 433.679688 448.324219 434.402344 C 448.324219 435.125 448.289062 435.84375 448.21875 436.5625 C 448.148438 437.28125 448.039062 437.996094 447.898438 438.703125 C 447.757812 439.410156 447.582031 440.113281 447.375 440.800781 C 447.164062 441.492188 446.921875 442.171875 446.644531 442.839844 C 446.367188 443.507812 446.058594 444.160156 445.71875 444.796875 C 445.378906 445.433594 445.007812 446.050781 444.605469 446.652344 C 444.207031 447.253906 443.777344 447.832031 443.316406 448.390625 C 442.859375 448.949219 442.375 449.484375 441.863281 449.996094 C 441.355469 450.503906 440.820312 450.988281 440.261719 451.449219 C 439.703125 451.90625 439.125 452.335938 438.523438 452.738281 C 437.921875 453.136719 437.304688 453.507812 436.667969 453.851562 C 436.03125 454.191406 435.378906 454.5 434.710938 454.773438 C 434.042969 455.050781 433.363281 455.292969 432.671875 455.503906 C 431.980469 455.714844 431.28125 455.890625 430.574219 456.03125 C 429.863281 456.171875 429.152344 456.277344 428.433594 456.347656 C 427.714844 456.417969 426.992188 456.453125 426.269531 456.453125 C 425.546875 456.453125 424.828125 456.417969 424.109375 456.34375 C 423.390625 456.273438 422.679688 456.167969 421.96875 456.027344 C 421.261719 455.882812 420.5625 455.707031 419.871094 455.5 C 419.179688 455.289062 418.503906 455.046875 417.835938 454.769531 C 417.167969 454.492188 416.515625 454.183594 415.878906 453.84375 C 415.242188 453.503906 414.625 453.132812 414.023438 452.730469 C 413.425781 452.328125 412.84375 451.898438 412.289062 451.441406 C 411.730469 450.984375 411.195312 450.5 410.683594 449.988281 C 410.171875 449.476562 409.6875 448.941406 409.230469 448.382812 C 408.773438 447.828125 408.34375 447.246094 407.941406 446.648438 C 407.539062 446.046875 407.167969 445.429688 406.828125 444.792969 C 406.488281 444.15625 406.179688 443.503906 405.902344 442.835938 C 405.625 442.167969 405.382812 441.492188 405.171875 440.800781 C 404.964844 440.109375 404.789062 439.410156 404.644531 438.703125 C 404.503906 437.992188 404.398438 437.28125 404.328125 436.5625 C 404.253906 435.84375 404.21875 435.125 404.21875 434.402344 Z M 404.21875 434.402344 " fill-opacity="1" fill-rule="nonzero"/></svg>