<?xml version="1.0" encoding="UTF-8" standalone="no"?><!DOCTYPE svg PUBLIC "-//W3C//DTD SVG 1.1//EN" "http://www.w3.org/Graphics/SVG/1.1/DTD/svg11.dtd"><svg width="100%" height="100%" viewBox="0 0 1538 363" version="1.1" xmlns="http://www.w3.org/2000/svg" xmlns:xlink="http://www.w3.org/1999/xlink" xml:space="preserve" xmlns:serif="http://www.serif.com/" style="fill-rule:evenodd;clip-rule:evenodd;stroke-linejoin:round;stroke-miterlimit:2;"><g><g><g><g><g><path d="M-0,217.356l0,-69.599l45.448,0l0,10.262l-32.716,0l0,19.059l29.745,0l0,9.954l-29.745,0l0,20.1l32.716,0l-0,10.224l-45.448,0Z" style="fill-rule:nonzero;"/></g></g></g><g><g><g><path d="M48.939,217.356l0,-49.306l11.227,0l0.965,8.333c1.543,-2.903 3.752,-5.218 6.636,-6.944c2.874,-1.717 6.269,-2.585 10.185,-2.585c6.096,0 10.822,1.929 14.198,5.787c3.395,3.839 5.093,9.452 5.093,16.86l0,27.855l-12.731,0l0,-26.659c0,-4.244 -0.868,-7.485 -2.585,-9.722c-1.726,-2.257 -4.417,-3.395 -8.063,-3.395c-3.578,0 -6.51,1.264 -8.796,3.781c-2.296,2.527 -3.434,6.038 -3.434,10.532l0,25.463l-12.693,0Z" style="fill-rule:nonzero;"/></g></g></g><g><g><g><path d="M125.281,218.552c-5.044,0 -9.491,-1.1 -13.349,-3.279c-3.839,-2.18 -6.867,-5.228 -9.105,-9.144c-2.218,-3.906 -3.318,-8.382 -3.318,-13.426c0,-5.035 1.1,-9.51 3.318,-13.426c2.238,-3.906 5.266,-6.954 9.105,-9.144c3.858,-2.18 8.304,-3.279 13.349,-3.279c6.298,0 11.593,1.649 15.895,4.938c4.321,3.27 7.07,7.784 8.256,13.542l-13.426,0c-0.675,-2.392 -1.987,-4.253 -3.935,-5.594c-1.958,-1.36 -4.263,-2.045 -6.906,-2.045c-3.501,0 -6.481,1.331 -8.951,3.974c-2.45,2.652 -3.665,6.327 -3.665,11.034c0,4.707 1.215,8.391 3.665,11.034c2.469,2.652 5.449,3.974 8.951,3.974c2.643,0 4.948,-0.656 6.906,-1.968c1.948,-1.331 3.26,-3.221 3.935,-5.671l13.426,0c-1.186,5.556 -3.935,10.031 -8.256,13.426c-4.302,3.376 -9.597,5.054 -15.895,5.054Z" style="fill-rule:nonzero;"/></g></g></g><g><g><g><path d="M176.176,218.552c-4.784,0 -9.086,-1.1 -12.886,-3.279c-3.81,-2.18 -6.829,-5.218 -9.066,-9.105c-2.218,-3.877 -3.318,-8.372 -3.318,-13.465c0,-5.112 1.128,-9.606 3.395,-13.465c2.257,-3.877 5.295,-6.916 9.105,-9.105c3.8,-2.18 8.083,-3.279 12.847,-3.279c4.707,0 8.96,1.1 12.77,3.279c3.829,2.189 6.848,5.228 9.066,9.105c2.209,3.858 3.318,8.353 3.318,13.465c0,5.093 -1.109,9.587 -3.318,13.465c-2.218,3.887 -5.247,6.925 -9.105,9.105c-3.839,2.18 -8.102,3.279 -12.809,3.279Zm0,-11.034c3.318,0 6.192,-1.235 8.642,-3.704c2.44,-2.488 3.665,-6.192 3.665,-11.111c0,-4.909 -1.225,-8.603 -3.665,-11.073c-2.45,-2.488 -5.305,-3.742 -8.565,-3.742c-3.376,0 -6.269,1.254 -8.681,3.742c-2.421,2.469 -3.627,6.163 -3.627,11.073c0,4.919 1.206,8.623 3.627,11.111c2.411,2.469 5.285,3.704 8.603,3.704Z" style="fill-rule:nonzero;"/></g></g></g><g><g><g><path d="M204.519,217.356l0,-49.306l11.227,0l0.965,8.333c1.543,-2.903 3.752,-5.218 6.636,-6.944c2.874,-1.717 6.269,-2.585 10.185,-2.585c6.096,0 10.822,1.929 14.198,5.787c3.395,3.839 5.093,9.452 5.093,16.86l0,27.855l-12.731,0l0,-26.659c0,-4.244 -0.868,-7.485 -2.585,-9.722c-1.726,-2.257 -4.417,-3.395 -8.063,-3.395c-3.578,0 -6.51,1.264 -8.796,3.781c-2.296,2.527 -3.434,6.038 -3.434,10.532l0,25.463l-12.693,0Z" style="fill-rule:nonzero;"/></g></g></g><g><g><g><path d="M278.662,217.356c-5.17,0 -9.317,-1.254 -12.423,-3.781c-3.115,-2.517 -4.668,-6.993 -4.668,-13.426l0,-21.451l-8.449,0l0,-10.648l8.449,0l1.466,-13.233l11.265,0l0,13.233l13.31,0l0,10.648l-13.31,0l0,21.566c0,2.392 0.511,4.041 1.543,4.938c1.022,0.878 2.787,1.312 5.285,1.312l6.173,0l0,10.841l-8.642,0Z" style="fill-rule:nonzero;"/></g></g></g><g><g><g><path d="M290.311,217.356l0,-49.306l11.304,0l1.196,9.221c1.794,-3.164 4.225,-5.681 7.292,-7.562c3.086,-1.9 6.723,-2.855 10.918,-2.855l0,13.426l-3.588,0c-2.778,0 -5.266,0.444 -7.446,1.312c-2.189,0.849 -3.897,2.344 -5.131,4.475c-1.235,2.112 -1.852,5.054 -1.852,8.835l0,22.454l-12.693,0Z" style="fill-rule:nonzero;"/></g></g></g><g><g><g><path d="M345.384,218.552c-4.996,0 -9.414,-1.061 -13.272,-3.164c-3.839,-2.132 -6.848,-5.112 -9.028,-8.951c-2.189,-3.858 -3.279,-8.304 -3.279,-13.349c0,-5.093 1.08,-9.616 3.241,-13.58c2.16,-3.983 5.141,-7.079 8.951,-9.298c3.8,-2.238 8.295,-3.356 13.465,-3.356c4.832,0 9.105,1.071 12.809,3.202c3.723,2.112 6.636,5.006 8.719,8.681c2.083,3.684 3.125,7.774 3.125,12.269c0,0.723 -0.019,1.485 -0.039,2.276c-0.029,0.801 -0.077,1.64 -0.154,2.508l-37.461,0c0.251,3.839 1.591,6.848 4.012,9.028c2.411,2.189 5.343,3.279 8.796,3.279c2.566,0 4.726,-0.579 6.481,-1.736c1.775,-1.157 3.096,-2.662 3.974,-4.514l12.924,0c-0.955,3.115 -2.508,5.961 -4.668,8.526c-2.141,2.546 -4.784,4.552 -7.948,6.019c-3.144,1.437 -6.694,2.16 -10.648,2.16Zm0.077,-41.358c-3.115,0 -5.864,0.878 -8.256,2.623c-2.392,1.755 -3.916,4.427 -4.552,8.025l24.537,0c-0.212,-3.26 -1.408,-5.845 -3.588,-7.755c-2.189,-1.929 -4.9,-2.894 -8.14,-2.894Z" style="fill-rule:nonzero;"/></g></g></g><g><g><g><path d="M384.524,217.356l25.656,-69.599l8.873,0l25.54,69.599l-8.873,0l-6.327,-17.901l-29.63,0l-6.481,17.901l-8.758,0Zm17.708,-24.653l24.653,0l-12.307,-34.414l-12.346,34.414Z" style="fill-rule:nonzero;"/></g></g></g><g><g><g><path d="M486.65,239.231l0,-30.015c-1.601,2.373 -3.887,4.514 -6.867,6.443c-2.99,1.929 -6.732,2.894 -11.227,2.894c-4.919,0 -9.211,-1.119 -12.886,-3.356c-3.684,-2.257 -6.539,-5.343 -8.565,-9.259c-2.006,-3.906 -3.009,-8.353 -3.009,-13.349c0,-4.958 1.013,-9.375 3.048,-13.233c2.054,-3.877 4.909,-6.925 8.565,-9.144c3.646,-2.238 7.957,-3.356 12.924,-3.356c4.032,0 7.61,0.839 10.725,2.508c3.135,1.649 5.565,3.964 7.292,6.944l0.772,-8.256l7.562,0l0,71.181l-8.333,0Zm-17.207,-27.932c3.318,0 6.25,-0.772 8.796,-2.315c2.546,-1.563 4.524,-3.742 5.941,-6.52c1.437,-2.797 2.16,-6.057 2.16,-9.761c0,-3.704 -0.723,-6.944 -2.16,-9.722c-1.418,-2.797 -3.395,-4.977 -5.941,-6.52c-2.546,-1.562 -5.478,-2.353 -8.796,-2.353c-3.241,0 -6.154,0.791 -8.719,2.353c-2.546,1.543 -4.543,3.723 -5.98,6.52c-1.418,2.778 -2.122,6.019 -2.122,9.722c0,3.704 0.704,6.964 2.122,9.761c1.437,2.778 3.434,4.958 5.98,6.52c2.566,1.543 5.478,2.315 8.719,2.315Z" style="fill-rule:nonzero;"/></g></g></g><g><g><g><path d="M518.338,218.552c-5.845,0 -10.484,-1.775 -13.927,-5.324c-3.453,-3.549 -5.17,-8.999 -5.17,-16.358l0,-28.819l8.372,0l0,27.932c0,10.262 4.205,15.394 12.616,15.394c4.321,0 7.88,-1.524 10.687,-4.591c2.826,-3.086 4.244,-7.485 4.244,-13.194l0,-25.54l8.333,0l0,49.306l-7.562,0l-0.579,-8.835c-1.524,3.115 -3.8,5.575 -6.829,7.369c-3.009,1.775 -6.404,2.662 -10.185,2.662Z" style="fill-rule:nonzero;"/></g></g></g><g><g><g><path d="M554.026,157.094c-1.649,0 -3.029,-0.54 -4.128,-1.62c-1.08,-1.1 -1.62,-2.479 -1.62,-4.128c0,-1.591 0.54,-2.913 1.62,-3.974c1.1,-1.051 2.479,-1.582 4.128,-1.582c1.591,0 2.951,0.53 4.09,1.582c1.128,1.061 1.698,2.382 1.698,3.974c0,1.649 -0.569,3.029 -1.698,4.128c-1.138,1.08 -2.498,1.62 -4.09,1.62Zm-4.167,60.262l0,-49.306l8.333,0l0,49.306l-8.333,0Z" style="fill-rule:nonzero;"/></g></g></g></g></g><g><g><g><g><g><path d="M944.718,295.595l0,-97.878l15.818,0l0,97.878l-15.818,0Zm-4.9,-126.389c0,-3.627 1.157,-6.597 3.472,-8.912c2.315,-2.334 5.421,-3.511 9.336,-3.511c3.906,0 6.993,1.177 9.259,3.511c2.257,2.315 3.395,5.285 3.395,8.912c0,3.53 -1.138,6.462 -3.395,8.796c-2.267,2.315 -5.353,3.472 -9.259,3.472c-3.916,0 -7.022,-1.157 -9.336,-3.472c-2.315,-2.334 -3.472,-5.266 -3.472,-8.796Z" style="fill:#ffca45;fill-rule:nonzero;"/></g></g></g><g><g><g><path d="M974.709,295.595l0,-97.878l13.002,0l1.505,12.23c7.533,-9.799 18.152,-14.699 31.867,-14.699c7.793,0 14.641,1.64 20.563,4.9c5.912,3.27 10.503,8.054 13.773,14.352c7.919,-12.828 20.062,-19.252 36.42,-19.252c12.317,0 22.155,3.964 29.514,11.883c7.35,7.928 11.034,18.74 11.034,32.446l0,56.019l-15.856,0l0,-53.395c0,-9.664 -2.421,-17.4 -7.253,-23.187c-4.842,-5.787 -11.343,-8.681 -19.522,-8.681c-8.439,0 -15.268,3.029 -20.486,9.066c-5.199,6.047 -7.793,14.101 -7.793,24.151l0,52.045l-15.856,0l0,-53.395c0,-9.664 -2.431,-17.4 -7.292,-23.187c-4.842,-5.787 -11.333,-8.681 -19.483,-8.681c-8.439,0 -15.268,3.029 -20.486,9.066c-5.228,6.047 -7.832,14.101 -7.832,24.151l0,52.045l-15.818,0Z" style="fill:#ffca45;fill-rule:nonzero;"/></g></g></g><g><g><g><path d="M1188.8,298.064c-10.185,0 -19.194,-2.199 -27.006,-6.597c-7.793,-4.417 -13.889,-10.532 -18.287,-18.326c-4.398,-7.793 -6.597,-16.647 -6.597,-26.582c0,-10.05 2.199,-18.914 6.597,-26.582c4.398,-7.687 10.494,-13.735 18.287,-18.133c7.813,-4.398 16.821,-6.597 27.006,-6.597c10.185,0 19.174,2.199 26.968,6.597c7.793,4.398 13.889,10.446 18.287,18.133c4.398,7.668 6.597,16.532 6.597,26.582c0,9.934 -2.199,18.789 -6.597,26.582c-4.398,7.793 -10.494,13.908 -18.287,18.326c-7.793,4.398 -16.782,6.597 -26.968,6.597Zm-36.034,-51.505c0,7.176 1.524,13.503 4.591,18.981c3.086,5.459 7.33,9.703 12.731,12.731c5.421,3.009 11.661,4.514 18.711,4.514c7.022,0 13.233,-1.505 18.634,-4.514c5.421,-3.029 9.684,-7.272 12.77,-12.731c3.086,-5.478 4.63,-11.806 4.63,-18.981c0,-7.176 -1.543,-13.465 -4.63,-18.866c-3.086,-5.401 -7.35,-9.645 -12.77,-12.731c-5.401,-3.086 -11.613,-4.63 -18.634,-4.63c-7.051,0 -13.291,1.543 -18.711,4.63c-5.401,3.086 -9.645,7.33 -12.731,12.731c-3.067,5.401 -4.591,11.69 -4.591,18.866Zm27.16,-64.313l10.571,-29.051l16.975,0l-12.847,29.051l-14.699,0Z" style="fill:#ffca45;fill-rule:nonzero;"/></g></g></g><g><g><g><path d="M1275.368,295.595l-42.824,-97.878l17.168,0l13.387,30.903l19.985,45.833l19.83,-45.833l13.58,-30.903l17.168,0l-43.017,97.878l-15.278,0Z" style="fill:#ffca45;fill-rule:nonzero;"/></g></g></g><g><g><g><path d="M1375.73,298.064c-9.828,0 -18.509,-2.18 -26.042,-6.52c-7.542,-4.34 -13.455,-10.417 -17.747,-18.21c-4.273,-7.793 -6.404,-16.715 -6.404,-26.775c0,-10.05 2.132,-18.953 6.404,-26.698c4.292,-7.735 10.233,-13.773 17.824,-18.094c7.61,-4.34 16.329,-6.52 26.157,-6.52c10.417,0 19.454,2.459 27.122,7.369c7.687,4.89 13.58,11.642 17.67,20.255c4.09,8.623 5.941,18.654 5.556,30.093l-84.684,0c1.254,9.182 4.958,16.512 11.111,21.991c6.173,5.459 13.908,8.179 23.225,8.179c6.404,0 12.24,-1.37 17.515,-4.128c5.295,-2.778 9.452,-6.732 12.461,-11.883l17.901,0c-3.887,9.549 -10.108,17.091 -18.673,22.647c-8.546,5.536 -18.345,8.295 -29.398,8.295Zm-33.951,-59.066l68.634,0c-1.62,-8.922 -5.546,-15.953 -11.767,-21.103c-6.231,-5.17 -13.802,-7.755 -22.724,-7.755c-9.057,0 -16.667,2.652 -22.84,7.948c-6.173,5.276 -9.944,12.249 -11.304,20.91Z" style="fill:#ffca45;fill-rule:nonzero;"/></g></g></g><g><g><g><path d="M1432.321,295.595l0,-97.878l15.818,0l0,97.878l-15.818,0Zm-4.9,-126.389c0,-3.627 1.157,-6.597 3.472,-8.912c2.315,-2.334 5.421,-3.511 9.336,-3.511c3.906,0 6.993,1.177 9.259,3.511c2.257,2.315 3.395,5.285 3.395,8.912c0,3.53 -1.138,6.462 -3.395,8.796c-2.267,2.315 -5.353,3.472 -9.259,3.472c-3.916,0 -7.022,-1.157 -9.336,-3.472c-2.315,-2.334 -3.472,-5.266 -3.472,-8.796Z" style="fill:#ffca45;fill-rule:nonzero;"/></g></g></g><g><g><g><path d="M1497.767,298.064c-12.838,0 -23.129,-3.048 -30.864,-9.144c-7.716,-6.115 -11.709,-14.14 -11.96,-24.074l15.664,0c0.251,5.922 2.758,10.571 7.523,13.966c4.784,3.395 11.391,5.093 19.83,5.093c7.407,0 13.243,-1.283 17.515,-3.858c4.292,-2.595 6.443,-6.096 6.443,-10.494c0,-4.398 -2.238,-7.967 -6.713,-10.725c-4.475,-2.778 -11.487,-4.977 -21.026,-6.597c-12.577,-2.16 -21.914,-5.613 -28.009,-10.378c-6.096,-4.784 -9.144,-11.005 -9.144,-18.673c0,-8.816 3.356,-15.673 10.069,-20.563c6.732,-4.909 16.011,-7.369 27.816,-7.369c12.085,0 21.74,2.681 28.974,8.025c7.224,5.353 11.159,12.867 11.806,22.531l-15.664,0c-0.521,-5.401 -2.951,-9.51 -7.292,-12.346c-4.321,-2.826 -10.204,-4.244 -17.631,-4.244c-7.022,0 -12.519,1.235 -16.474,3.704c-3.964,2.45 -5.941,5.864 -5.941,10.262c0,4.147 2.006,7.388 6.019,9.722c4.012,2.315 11.111,4.475 21.296,6.481c25.019,4.919 37.539,15.104 37.539,30.556c0,8.439 -3.617,15.239 -10.841,20.409c-7.234,5.15 -16.879,7.716 -28.935,7.716Z" style="fill:#ffca45;fill-rule:nonzero;"/></g></g></g></g></g><path d="M607.328,272.251l217.805,0l0,-181.501l-108.902,-72.598l-108.902,72.598l0,181.501Z" style="fill:#fff;fill-rule:nonzero;"/><path d="M897.741,254.109c0,2.373 -0.116,4.745 -0.357,7.108c-0.231,2.373 -0.579,4.716 -1.042,7.051c-0.463,2.334 -1.042,4.639 -1.726,6.916c-0.694,2.276 -1.495,4.504 -2.402,6.703c-0.916,2.199 -1.929,4.35 -3.048,6.443c-1.119,2.093 -2.344,4.138 -3.665,6.115c-1.321,1.977 -2.739,3.877 -4.244,5.72c-1.505,1.842 -3.106,3.598 -4.784,5.276c-1.678,1.688 -3.443,3.279 -5.276,4.784c-1.842,1.514 -3.752,2.922 -5.729,4.244c-1.977,1.321 -4.012,2.546 -6.105,3.665c-2.103,1.119 -4.244,2.141 -6.443,3.048c-2.199,0.907 -4.437,1.707 -6.713,2.402c-2.276,0.685 -4.572,1.264 -6.906,1.726c-2.334,0.463 -4.687,0.82 -7.051,1.051c-2.363,0.231 -4.736,0.347 -7.118,0.347c-2.373,0 -4.745,-0.116 -7.108,-0.347c-2.373,-0.231 -4.716,-0.588 -7.051,-1.051c-2.334,-0.463 -4.639,-1.042 -6.916,-1.726c-2.276,-0.694 -4.514,-1.495 -6.703,-2.402c-2.199,-0.907 -4.35,-1.929 -6.443,-3.048c-2.093,-1.119 -4.138,-2.344 -6.115,-3.665c-1.977,-1.321 -3.877,-2.73 -5.72,-4.244c-1.842,-1.505 -3.598,-3.096 -5.276,-4.784c-1.688,-1.678 -3.279,-3.434 -4.784,-5.276c-1.514,-1.842 -2.922,-3.742 -4.244,-5.72c-1.321,-1.977 -2.546,-4.022 -3.665,-6.115c-1.119,-2.093 -2.141,-4.244 -3.048,-6.443c-0.907,-2.199 -1.707,-4.427 -2.402,-6.703c-0.685,-2.276 -1.264,-4.581 -1.726,-6.916c-0.463,-2.334 -0.82,-4.678 -1.051,-7.051c-0.231,-2.363 -0.347,-4.736 -0.347,-7.108c0,-2.382 0.116,-4.755 0.347,-7.118c0.231,-2.363 0.588,-4.716 1.051,-7.051c0.463,-2.334 1.042,-4.63 1.726,-6.906c0.694,-2.276 1.495,-4.514 2.402,-6.713c0.907,-2.199 1.929,-4.34 3.048,-6.443c1.119,-2.093 2.344,-4.128 3.665,-6.105c1.321,-1.977 2.73,-3.887 4.244,-5.729c1.505,-1.833 3.096,-3.598 4.784,-5.276c1.678,-1.678 3.434,-3.279 5.276,-4.784c1.842,-1.505 3.742,-2.922 5.72,-4.244c1.977,-1.321 4.022,-2.546 6.115,-3.665c2.093,-1.119 4.244,-2.132 6.443,-3.048c2.189,-0.907 4.427,-1.707 6.703,-2.402c2.276,-0.685 4.581,-1.264 6.916,-1.726c2.334,-0.463 4.678,-0.81 7.051,-1.042c2.363,-0.241 4.736,-0.357 7.108,-0.357c2.382,0 4.755,0.116 7.118,0.357c2.363,0.231 4.716,0.579 7.051,1.042c2.334,0.463 4.63,1.042 6.906,1.726c2.276,0.694 4.514,1.495 6.713,2.402c2.199,0.916 4.34,1.929 6.443,3.048c2.093,1.119 4.128,2.344 6.105,3.665c1.977,1.321 3.887,2.739 5.729,4.244c1.833,1.505 3.598,3.106 5.276,4.784c1.678,1.678 3.279,3.443 4.784,5.276c1.505,1.842 2.922,3.752 4.244,5.729c1.321,1.977 2.546,4.012 3.665,6.105c1.119,2.103 2.132,4.244 3.048,6.443c0.907,2.199 1.707,4.437 2.402,6.713c0.685,2.276 1.264,4.572 1.726,6.906c0.463,2.334 0.81,4.688 1.042,7.051c0.241,2.363 0.357,4.736 0.357,7.118Z" style="fill:#ffca45;fill-rule:nonzero;"/><path d="M843.285,324.344c-5.941,1.63 -11.989,2.421 -18.152,2.363c-2.373,0 -4.745,-0.116 -7.108,-0.347c-2.373,-0.231 -4.716,-0.588 -7.051,-1.051c-2.334,-0.463 -4.639,-1.042 -6.916,-1.726c-2.276,-0.694 -4.514,-1.495 -6.703,-2.402c-2.199,-0.907 -4.35,-1.929 -6.443,-3.048c-2.093,-1.119 -4.138,-2.344 -6.115,-3.665c-1.977,-1.321 -3.877,-2.73 -5.72,-4.244c-1.842,-1.505 -3.598,-3.096 -5.276,-4.784c-1.688,-1.678 -3.279,-3.434 -4.784,-5.276c-1.514,-1.842 -2.922,-3.742 -4.244,-5.72c-1.321,-1.977 -2.546,-4.022 -3.665,-6.115c-1.119,-2.093 -2.141,-4.244 -3.048,-6.443c-0.907,-2.199 -1.707,-4.427 -2.402,-6.703c-0.685,-2.276 -1.264,-4.581 -1.726,-6.916c-0.463,-2.334 -0.82,-4.678 -1.051,-7.051c-0.231,-2.363 -0.347,-4.736 -0.347,-7.108c0,-2.382 0.116,-4.755 0.347,-7.118c0.231,-2.363 0.588,-4.716 1.051,-7.051c0.463,-2.334 1.042,-4.63 1.726,-6.906c0.694,-2.276 1.495,-4.514 2.402,-6.713c0.907,-2.199 1.929,-4.34 3.048,-6.443c1.119,-2.093 2.344,-4.128 3.665,-6.105c1.321,-1.977 2.73,-3.887 4.244,-5.729c1.505,-1.833 3.096,-3.598 4.784,-5.276c1.678,-1.678 3.434,-3.279 5.276,-4.784c1.842,-1.505 3.742,-2.922 5.72,-4.244c1.977,-1.321 4.022,-2.546 6.115,-3.665c2.093,-1.119 4.244,-2.132 6.443,-3.048c2.189,-0.907 4.427,-1.707 6.703,-2.402c2.276,-0.685 4.581,-1.264 6.916,-1.726c2.334,-0.463 4.678,-0.81 7.051,-1.042c2.363,-0.241 4.736,-0.357 7.108,-0.357c6.163,-0.048 12.211,0.733 18.152,2.363c-3.868,0.993 -7.629,2.305 -11.285,3.916c-3.646,1.62 -7.147,3.53 -10.484,5.72c-3.337,2.199 -6.472,4.649 -9.404,7.359c-2.932,2.72 -5.623,5.652 -8.073,8.806c-2.45,3.164 -4.62,6.501 -6.51,10.012c-1.9,3.52 -3.492,7.166 -4.794,10.947c-1.292,3.781 -2.267,7.639 -2.922,11.574c-0.656,3.945 -0.984,7.909 -0.984,11.912c0,3.993 0.328,7.957 0.984,11.902c0.656,3.935 1.63,7.803 2.922,11.584c1.302,3.771 2.894,7.427 4.794,10.938c1.89,3.52 4.061,6.858 6.51,10.012c2.45,3.154 5.141,6.096 8.073,8.806c2.932,2.71 6.067,5.17 9.404,7.359c3.337,2.199 6.838,4.099 10.484,5.72c3.655,1.62 7.417,2.922 11.285,3.916Z" style="fill:#cc9e3a;fill-rule:nonzero;"/><path d="M745.272,42.294l-101.64,66.609l0,163.349l-36.304,0l0,-181.501l108.902,-72.598l29.041,24.142Z" style="fill:#bcbec0;fill-rule:nonzero;"/><path d="M698.078,254.109l-72.598,0l0,-148.823l90.77,-64.824l90.731,64.805l0,21.788c0,1.186 0.125,2.373 0.357,3.54c0.231,1.167 0.569,2.305 1.032,3.405c0.453,1.1 1.013,2.151 1.678,3.135c0.656,0.993 1.408,1.91 2.257,2.749c0.839,0.849 1.755,1.601 2.749,2.267c0.993,0.656 2.035,1.215 3.135,1.669c1.1,0.463 2.238,0.801 3.405,1.042c1.167,0.231 2.353,0.347 3.54,0.347c1.196,0 2.373,-0.116 3.54,-0.347c1.177,-0.241 2.305,-0.579 3.405,-1.042c1.109,-0.453 2.151,-1.013 3.144,-1.669c0.993,-0.666 1.91,-1.418 2.749,-2.267c0.839,-0.839 1.591,-1.755 2.257,-2.749c0.666,-0.984 1.225,-2.035 1.678,-3.135c0.453,-1.1 0.801,-2.238 1.032,-3.405c0.231,-1.167 0.347,-2.353 0.347,-3.54l0,-0.347c2.913,0.068 5.671,-0.55 8.275,-1.833c2.604,-1.283 4.774,-3.096 6.491,-5.449c0.694,-0.965 1.283,-1.997 1.775,-3.077c0.492,-1.09 0.868,-2.209 1.138,-3.376c0.27,-1.157 0.424,-2.334 0.463,-3.53c0.039,-1.186 -0.048,-2.373 -0.241,-3.549c-0.193,-1.177 -0.502,-2.315 -0.926,-3.434c-0.424,-1.109 -0.945,-2.18 -1.582,-3.193c-0.627,-1.003 -1.35,-1.948 -2.17,-2.816c-0.81,-0.868 -1.707,-1.649 -2.672,-2.344l-127.035,-90.731c-1.543,-1.1 -3.212,-1.939 -5.015,-2.517c-1.794,-0.569 -3.646,-0.858 -5.536,-0.858c-1.89,0 -3.733,0.289 -5.536,0.858c-1.804,0.579 -3.472,1.418 -5.006,2.517l-127.074,90.75c-1.562,1.119 -2.922,2.45 -4.061,4.003c-1.148,1.543 -2.016,3.231 -2.623,5.054c-0.608,1.823 -0.916,3.704 -0.926,5.623c-0.01,1.929 0.28,3.8 0.868,5.633c0.588,1.833 1.447,3.53 2.566,5.083c1.128,1.563 2.469,2.913 4.022,4.041c1.553,1.138 3.241,1.997 5.073,2.595c1.833,0.598 3.704,0.897 5.633,0.897l0,145.197c0,1.196 0.116,2.373 0.347,3.549c0.231,1.167 0.569,2.296 1.032,3.405c0.453,1.1 1.013,2.141 1.678,3.135c0.656,0.993 1.408,1.91 2.257,2.749c0.839,0.849 1.755,1.601 2.749,2.257c0.993,0.666 2.035,1.225 3.135,1.678c1.1,0.453 2.238,0.801 3.405,1.032c1.167,0.231 2.353,0.347 3.54,0.347l90.75,0c1.196,0 2.373,-0.116 3.549,-0.347c1.167,-0.231 2.296,-0.579 3.405,-1.032c1.1,-0.453 2.141,-1.013 3.135,-1.678c0.993,-0.656 1.91,-1.408 2.749,-2.257c0.849,-0.839 1.601,-1.755 2.257,-2.749c0.666,-0.993 1.225,-2.035 1.678,-3.135c0.453,-1.109 0.801,-2.238 1.032,-3.405c0.231,-1.177 0.347,-2.353 0.347,-3.549c0,-1.186 -0.116,-2.363 -0.347,-3.54c-0.231,-1.167 -0.579,-2.296 -1.032,-3.405c-0.453,-1.1 -1.013,-2.141 -1.678,-3.135c-0.656,-0.993 -1.408,-1.91 -2.257,-2.749c-0.839,-0.849 -1.755,-1.601 -2.749,-2.257c-0.993,-0.666 -2.035,-1.225 -3.135,-1.678c-1.109,-0.453 -2.238,-0.801 -3.405,-1.032c-1.177,-0.231 -2.353,-0.347 -3.549,-0.347Z" style="fill-rule:nonzero;"/><path d="M698.078,90.75c-1.186,0 -2.363,0.116 -3.54,0.347c-1.167,0.231 -2.296,0.579 -3.405,1.032c-1.1,0.463 -2.141,1.022 -3.135,1.678c-0.993,0.666 -1.91,1.418 -2.749,2.257c-0.849,0.849 -1.601,1.765 -2.257,2.758c-0.666,0.984 -1.225,2.035 -1.678,3.135c-0.453,1.1 -0.801,2.238 -1.032,3.405c-0.231,1.167 -0.347,2.344 -0.347,3.54c0,1.196 0.116,2.373 0.347,3.54c0.231,1.167 0.579,2.305 1.032,3.405c0.453,1.1 1.013,2.151 1.678,3.135c0.656,0.993 1.408,1.91 2.257,2.758c0.839,0.839 1.755,1.591 2.749,2.257c0.993,0.656 2.035,1.215 3.135,1.678c1.109,0.453 2.238,0.801 3.405,1.032c1.177,0.231 2.353,0.347 3.54,0.347l36.304,0c1.196,0 2.373,-0.116 3.54,-0.347c1.167,-0.231 2.305,-0.579 3.405,-1.032c1.1,-0.463 2.151,-1.022 3.144,-1.678c0.984,-0.666 1.9,-1.418 2.749,-2.257c0.839,-0.849 1.591,-1.765 2.257,-2.758c0.656,-0.984 1.215,-2.035 1.678,-3.135c0.453,-1.1 0.801,-2.238 1.032,-3.405c0.231,-1.167 0.347,-2.344 0.347,-3.54c0,-1.196 -0.116,-2.373 -0.347,-3.54c-0.231,-1.167 -0.579,-2.305 -1.032,-3.405c-0.463,-1.1 -1.022,-2.151 -1.678,-3.135c-0.666,-0.993 -1.418,-1.91 -2.257,-2.758c-0.849,-0.839 -1.765,-1.591 -2.749,-2.257c-0.993,-0.656 -2.045,-1.215 -3.144,-1.678c-1.1,-0.453 -2.238,-0.801 -3.405,-1.032c-1.167,-0.231 -2.344,-0.347 -3.54,-0.347l-36.304,0Z" style="fill-rule:nonzero;"/><path d="M928.721,332.022l-27.951,-27.951c1.022,-1.543 2.006,-3.125 2.932,-4.736c0.926,-1.611 1.813,-3.25 2.643,-4.919c0.829,-1.659 1.601,-3.347 2.324,-5.064c0.733,-1.707 1.399,-3.443 2.025,-5.199c0.617,-1.746 1.177,-3.52 1.688,-5.305c0.511,-1.794 0.974,-3.598 1.37,-5.411c0.405,-1.813 0.743,-3.646 1.032,-5.478c0.289,-1.833 0.521,-3.684 0.694,-5.536c0.183,-1.852 0.299,-3.704 0.357,-5.565c0.068,-1.852 0.068,-3.713 0.019,-5.575c-0.058,-1.852 -0.164,-3.713 -0.328,-5.565c-0.164,-1.852 -0.386,-3.694 -0.666,-5.536c-0.28,-1.833 -0.617,-3.665 -1.003,-5.478c-0.395,-1.823 -0.839,-3.627 -1.341,-5.421c-0.502,-1.784 -1.061,-3.559 -1.669,-5.314c-0.608,-1.755 -1.273,-3.492 -1.987,-5.208c-0.723,-1.717 -1.485,-3.414 -2.305,-5.083c-0.829,-1.669 -1.698,-3.308 -2.614,-4.919c-0.926,-1.62 -1.89,-3.202 -2.913,-4.765c-1.013,-1.553 -2.083,-3.077 -3.193,-4.572c-1.109,-1.485 -2.267,-2.942 -3.472,-4.36c-1.196,-1.418 -2.44,-2.807 -3.723,-4.147c-1.292,-1.341 -2.614,-2.643 -3.983,-3.906c-1.36,-1.264 -2.768,-2.488 -4.205,-3.665c-1.437,-1.177 -2.913,-2.305 -4.427,-3.395c-1.505,-1.08 -3.048,-2.122 -4.62,-3.115c-1.572,-0.993 -3.173,-1.929 -4.803,-2.826c-1.63,-0.897 -3.289,-1.736 -4.967,-2.527c-1.688,-0.791 -3.395,-1.534 -5.122,-2.218c-1.726,-0.685 -3.472,-1.321 -5.237,-1.9c-1.765,-0.579 -3.549,-1.109 -5.353,-1.582c-1.794,-0.473 -3.607,-0.887 -5.43,-1.244c-1.823,-0.357 -3.665,-0.666 -5.507,-0.916c-1.842,-0.241 -3.684,-0.434 -5.546,-0.569c-1.852,-0.135 -3.704,-0.212 -5.565,-0.231c-1.861,-0.019 -3.723,0.01 -5.575,0.106c-1.861,0.096 -3.713,0.241 -5.565,0.453c-1.842,0.203 -3.684,0.473 -5.517,0.791c-1.833,0.318 -3.646,0.694 -5.459,1.119c-1.813,0.434 -3.607,0.926 -5.382,1.466c-1.775,0.54 -3.54,1.128 -5.285,1.784c-1.736,0.646 -3.463,1.35 -5.16,2.103c-1.698,0.752 -3.376,1.563 -5.025,2.421c-1.649,0.849 -3.27,1.765 -4.871,2.72c-1.591,0.955 -3.154,1.958 -4.687,3.009c-1.534,1.051 -3.029,2.151 -4.495,3.299c-1.466,1.138 -2.903,2.334 -4.292,3.559c-1.389,1.235 -2.749,2.508 -4.061,3.819c-1.312,1.321 -2.585,2.672 -3.819,4.07c-1.235,1.389 -2.421,2.816 -3.569,4.282c-1.138,1.466 -2.238,2.971 -3.289,4.495c-1.051,1.534 -2.064,3.106 -3.019,4.697c-0.955,1.591 -1.861,3.212 -2.72,4.871c-0.858,1.649 -1.659,3.318 -2.421,5.015c-0.752,1.707 -1.456,3.424 -2.103,5.17c-0.646,1.746 -1.244,3.501 -1.784,5.285c-0.54,1.775 -1.022,3.569 -1.456,5.382c-0.434,1.804 -0.81,3.627 -1.128,5.459c-0.318,1.833 -0.579,3.665 -0.791,5.517c-0.203,1.852 -0.357,3.704 -0.444,5.556c-0.096,1.861 -0.135,3.713 -0.116,5.575c0.019,1.861 0.096,3.723 0.231,5.575c0.135,1.852 0.328,3.704 0.579,5.546c0.251,1.842 0.55,3.675 0.907,5.498c0.367,1.823 0.781,3.636 1.254,5.44c0.473,1.794 0.993,3.578 1.572,5.343c0.579,1.765 1.215,3.52 1.9,5.247c0.694,1.726 1.427,3.434 2.218,5.112c0.801,1.678 1.64,3.337 2.537,4.967c0.887,1.63 1.833,3.241 2.826,4.813c0.993,1.572 2.025,3.106 3.115,4.62c1.09,1.505 2.218,2.98 3.395,4.427c1.177,1.437 2.392,2.836 3.655,4.205c1.264,1.36 2.566,2.691 3.906,3.974c1.35,1.283 2.73,2.527 4.147,3.733c1.418,1.196 2.874,2.353 4.369,3.463c1.485,1.119 3.009,2.18 4.572,3.202c1.553,1.013 3.135,1.987 4.755,2.903c1.611,0.926 3.26,1.794 4.929,2.614c1.669,0.82 3.356,1.591 5.073,2.305c1.717,0.714 3.453,1.379 5.208,1.987c1.755,0.617 3.53,1.167 5.324,1.669c1.784,0.502 3.598,0.955 5.411,1.341c1.823,0.395 3.646,0.723 5.488,1.003c1.833,0.28 3.684,0.502 5.536,0.666c1.852,0.174 3.704,0.28 5.565,0.328c1.861,0.058 3.713,0.048 5.575,-0.01c1.861,-0.068 3.713,-0.183 5.565,-0.357c1.852,-0.174 3.694,-0.405 5.527,-0.694c1.842,-0.289 3.665,-0.637 5.488,-1.032c1.813,-0.405 3.617,-0.858 5.401,-1.37c1.784,-0.511 3.559,-1.08 5.314,-1.698c1.755,-0.617 3.482,-1.292 5.199,-2.016c1.707,-0.723 3.395,-1.505 5.064,-2.334c1.659,-0.829 3.299,-1.707 4.909,-2.633c1.611,-0.936 3.193,-1.91 4.745,-2.942l27.951,27.951c0.849,0.829 1.765,1.563 2.749,2.209c0.993,0.646 2.035,1.196 3.135,1.63c1.1,0.444 2.228,0.781 3.385,1.003c1.157,0.222 2.334,0.328 3.511,0.318c1.186,-0.01 2.353,-0.135 3.511,-0.367c1.167,-0.231 2.286,-0.579 3.376,-1.042c1.09,-0.453 2.132,-1.013 3.115,-1.669c0.974,-0.656 1.89,-1.408 2.72,-2.238c0.839,-0.839 1.582,-1.746 2.247,-2.73c0.656,-0.984 1.215,-2.016 1.669,-3.106c0.453,-1.09 0.801,-2.218 1.032,-3.376c0.241,-1.157 0.367,-2.324 0.367,-3.511c0.01,-1.186 -0.096,-2.353 -0.318,-3.511c-0.222,-1.167 -0.55,-2.296 -0.993,-3.395c-0.444,-1.09 -0.984,-2.132 -1.63,-3.125c-0.646,-0.993 -1.389,-1.91 -2.209,-2.758Zm-158.034,-77.913c0,-1.784 0.087,-3.569 0.26,-5.343c0.174,-1.775 0.434,-3.53 0.781,-5.285c0.347,-1.746 0.781,-3.472 1.302,-5.179c0.521,-1.707 1.119,-3.385 1.804,-5.035c0.675,-1.649 1.437,-3.26 2.276,-4.832c0.849,-1.572 1.765,-3.096 2.749,-4.581c0.993,-1.485 2.054,-2.913 3.183,-4.292c1.138,-1.379 2.334,-2.701 3.588,-3.954c1.264,-1.264 2.585,-2.459 3.964,-3.588c1.379,-1.138 2.807,-2.199 4.292,-3.183c1.485,-0.993 3.009,-1.91 4.581,-2.749c1.572,-0.839 3.183,-1.601 4.832,-2.286c1.649,-0.685 3.328,-1.283 5.035,-1.804c1.698,-0.511 3.434,-0.945 5.179,-1.292c1.746,-0.347 3.511,-0.617 5.285,-0.791c1.775,-0.174 3.549,-0.26 5.334,-0.26c1.784,0 3.569,0.087 5.343,0.26c1.775,0.174 3.53,0.444 5.285,0.791c1.746,0.347 3.472,0.781 5.179,1.292c1.707,0.521 3.385,1.119 5.035,1.804c1.649,0.685 3.26,1.447 4.832,2.286c1.572,0.839 3.096,1.755 4.581,2.749c1.485,0.984 2.913,2.045 4.292,3.183c1.379,1.128 2.701,2.324 3.954,3.588c1.264,1.254 2.459,2.575 3.588,3.954c1.138,1.379 2.199,2.807 3.183,4.292c0.993,1.485 1.91,3.009 2.749,4.581c0.839,1.572 1.601,3.183 2.286,4.832c0.685,1.649 1.283,3.328 1.804,5.035c0.511,1.707 0.945,3.434 1.292,5.179c0.347,1.755 0.617,3.511 0.791,5.285c0.174,1.775 0.26,3.559 0.26,5.343c0,1.784 -0.087,3.559 -0.26,5.334c-0.174,1.775 -0.444,3.54 -0.791,5.285c-0.347,1.746 -0.781,3.482 -1.292,5.179c-0.521,1.707 -1.119,3.385 -1.804,5.035c-0.685,1.649 -1.447,3.26 -2.286,4.832c-0.839,1.572 -1.755,3.096 -2.749,4.581c-0.984,1.485 -2.045,2.913 -3.183,4.292c-1.128,1.379 -2.324,2.701 -3.588,3.964c-1.254,1.254 -2.575,2.45 -3.954,3.588c-1.379,1.128 -2.807,2.189 -4.292,3.183c-1.485,0.984 -3.009,1.9 -4.581,2.749c-1.572,0.839 -3.183,1.601 -4.832,2.276c-1.649,0.685 -3.328,1.283 -5.035,1.804c-1.707,0.521 -3.434,0.955 -5.179,1.302c-1.755,0.347 -3.511,0.608 -5.285,0.781c-1.775,0.174 -3.559,0.26 -5.343,0.26c-1.784,0 -3.559,-0.087 -5.334,-0.27c-1.775,-0.174 -3.53,-0.434 -5.285,-0.781c-1.746,-0.357 -3.472,-0.791 -5.179,-1.302c-1.707,-0.521 -3.376,-1.119 -5.025,-1.804c-1.649,-0.685 -3.26,-1.447 -4.832,-2.286c-1.572,-0.839 -3.096,-1.755 -4.581,-2.749c-1.476,-0.993 -2.913,-2.054 -4.282,-3.183c-1.379,-1.128 -2.701,-2.324 -3.964,-3.588c-1.264,-1.264 -2.459,-2.585 -3.588,-3.964c-1.128,-1.37 -2.189,-2.807 -3.183,-4.282c-0.993,-1.485 -1.91,-3.009 -2.749,-4.581c-0.839,-1.572 -1.601,-3.183 -2.286,-4.832c-0.685,-1.649 -1.283,-3.318 -1.804,-5.025c-0.511,-1.707 -0.945,-3.434 -1.302,-5.179c-0.347,-1.755 -0.608,-3.511 -0.781,-5.285c-0.183,-1.775 -0.27,-3.549 -0.27,-5.334Z" style="fill-rule:nonzero;"/></svg>